HIERARCHY
ROOT Hips
{
	OFFSET 0.000000 83.214638 0.000000
	CHANNELS 6 Xposition Yposition Zposition Xrotation Yrotation Zrotation
	JOINT Pelvis
	{
		OFFSET 0.000000 0.000000 0.000000
		CHANNELS 3 Xrotation Yrotation Zrotation
		JOINT LeftUpLeg
		{
			OFFSET 8.479700 -4.795502 -0.379100
			CHANNELS 3 Xrotation Yrotation Zrotation
			JOINT LeftLeg
			{
				OFFSET 0.024144 -32.555107 0.112900
				CHANNELS 3 Xrotation Yrotation Zrotation
				JOINT LeftFoot
				{
					OFFSET -0.024144 -32.638630 -3.012600
					CHANNELS 3 Xrotation Yrotation Zrotation
					JOINT LeftToeBase
					{
						OFFSET 0.970200 -13.225400 11.864200
						CHANNELS 3 Xrotation Yrotation Zrotation
						End Site
						{
							OFFSET 0.000000 12.319262 0.000000
						}
					}
					JOINT LFootTongue
					{
						OFFSET 1.142400 -1.059800 6.665200
						CHANNELS 3 Xrotation Yrotation Zrotation
						End Site
						{
							OFFSET 0.000000 12.319262 0.000000
						}
					}
				}
				JOINT LeftPantLeg
				{
					OFFSET 0.918482 -16.533964 -2.284700
					CHANNELS 3 Xrotation Yrotation Zrotation
					End Site
					{
						OFFSET 0.350399 24.744368 0.000000
					}
				}
			}
		}
		JOINT RightUpLeg
		{
			OFFSET -8.479700 -4.795502 -0.379100
			CHANNELS 3 Xrotation Yrotation Zrotation
			JOINT RightLeg
			{
				OFFSET -0.023144 -32.555092 0.112900
				CHANNELS 3 Xrotation Yrotation Zrotation
				JOINT RightFoot
				{
					OFFSET 0.023144 -32.638641 -3.012700
					CHANNELS 3 Xrotation Yrotation Zrotation
					JOINT RightToeBase
					{
						OFFSET -0.970200 -13.225400 11.864200
						CHANNELS 3 Xrotation Yrotation Zrotation
						End Site
						{
							OFFSET 0.000000 12.319244 0.000000
						}
					}
					JOINT RFootTongue
					{
						OFFSET -1.142200 -1.059800 6.665200
						CHANNELS 3 Xrotation Yrotation Zrotation
						End Site
						{
							OFFSET 0.000000 12.319243 0.000000
						}
					}
				}
				JOINT RightPantLeg
				{
					OFFSET -0.919482 -16.533978 -2.284800
					CHANNELS 3 Xrotation Yrotation Zrotation
					End Site
					{
						OFFSET -0.350400 24.744419 0.000000
					}
				}
			}
		}
	}
	JOINT Spine
	{
		OFFSET 0.000000 7.722000 1.166200
		CHANNELS 3 Xrotation Yrotation Zrotation
		JOINT Spine1
		{
			OFFSET 0.000000 12.024101 0.248800
			CHANNELS 3 Xrotation Yrotation Zrotation
			JOINT Spine2
			{
				OFFSET 0.000000 11.502998 -0.491200
				CHANNELS 3 Xrotation Yrotation Zrotation
				JOINT Neck
				{
					OFFSET 0.000000 18.430702 -3.123100
					CHANNELS 3 Xrotation Yrotation Zrotation
					JOINT Head
					{
						OFFSET 0.000000 9.051102 1.034000
						CHANNELS 3 Xrotation Yrotation Zrotation
						JOINT HairB
						{
							OFFSET 0.208400 24.786102 24.822300
							CHANNELS 3 Xrotation Yrotation Zrotation
							End Site
							{
								OFFSET 0.000000 32.263779 0.000000
							}
						}
						JOINT HairA
						{
							OFFSET -7.081100 24.428299 23.196600
							CHANNELS 3 Xrotation Yrotation Zrotation
							End Site
							{
								OFFSET 0.000000 32.263779 0.000000
							}
						}
						JOINT Hat
						{
							OFFSET 16.728800 15.048294 -15.439601
							CHANNELS 3 Xrotation Yrotation Zrotation
							End Site
							{
								OFFSET 0.000000 32.263779 0.000000
							}
						}
					}
				}
				JOINT LeftShoulder
				{
					OFFSET 6.197800 13.665199 -4.064700
					CHANNELS 3 Xrotation Yrotation Zrotation
					JOINT LeftArm
					{
						OFFSET 7.778100 -0.187103 -1.709300
						CHANNELS 3 Xrotation Yrotation Zrotation
						JOINT LeftForeArm
						{
							OFFSET 22.049376 0.000000 0.000000
							CHANNELS 3 Xrotation Yrotation Zrotation
							JOINT LeftHand
							{
								OFFSET 23.009392 0.000000 0.000000
								CHANNELS 3 Xrotation Yrotation Zrotation
								JOINT LeftHandThumb1
								{
									OFFSET 3.507191 -2.063065 3.133727
									CHANNELS 3 Xrotation Yrotation Zrotation
									JOINT LeftHandThumb2
									{
										OFFSET 3.101337 -1.790558 1.790558
										CHANNELS 3 Xrotation Yrotation Zrotation
										JOINT LeftHandThumb3
										{
											OFFSET 3.058640 -1.765907 1.765906
											CHANNELS 3 Xrotation Yrotation Zrotation
											End Site
											{
												OFFSET -0.415260 3.926476 -0.049563
											}
										}
									}
								}
								JOINT LeftHandIndex1
								{
									OFFSET 11.334419 -0.901459 3.706815
									CHANNELS 3 Xrotation Yrotation Zrotation
									JOINT LeftHandIndex2
									{
										OFFSET 3.283112 0.000000 0.000000
										CHANNELS 3 Xrotation Yrotation Zrotation
										JOINT LeftHandIndex3
										{
											OFFSET 3.323853 0.000000 0.000000
											CHANNELS 3 Xrotation Yrotation Zrotation
											End Site
											{
												OFFSET -1.135597 3.097809 0.402452
											}
										}
									}
								}
								JOINT LeftHandMiddle1
								{
									OFFSET 11.335861 0.000000 0.000000
									CHANNELS 3 Xrotation Yrotation Zrotation
									JOINT LeftHandMiddle2
									{
										OFFSET 3.410492 0.000000 0.000000
										CHANNELS 3 Xrotation Yrotation Zrotation
										JOINT LeftHandMiddle3
										{
											OFFSET 3.312172 0.000000 0.000000
											CHANNELS 3 Xrotation Yrotation Zrotation
											End Site
											{
												OFFSET -1.150200 3.080154 0.400270
											}
										}
									}
								}
								JOINT LeftHandRing1
								{
									OFFSET 11.514786 -0.013176 -3.003090
									CHANNELS 3 Xrotation Yrotation Zrotation
									JOINT LeftHandRing2
									{
										OFFSET 3.053307 0.000000 0.000000
										CHANNELS 3 Xrotation Yrotation Zrotation
										JOINT LeftHandRing3
										{
											OFFSET 3.295807 0.000000 0.000000
											CHANNELS 3 Xrotation Yrotation Zrotation
											End Site
											{
												OFFSET -1.281006 3.013344 0.375733
											}
										}
									}
								}
								JOINT LeftHandPinky1
								{
									OFFSET 10.518692 -0.960396 -5.730441
									CHANNELS 3 Xrotation Yrotation Zrotation
									JOINT LeftHandPinky2
									{
										OFFSET 2.861649 0.000000 0.000000
										CHANNELS 3 Xrotation Yrotation Zrotation
										JOINT LeftHandPinky3
										{
											OFFSET 2.863380 0.000000 0.000000
											CHANNELS 3 Xrotation Yrotation Zrotation
											End Site
											{
												OFFSET -0.843597 2.711159 0.369971
											}
										}
									}
								}
							}
							JOINT LSleeve
							{
								OFFSET 6.676277 -0.344902 -1.011730
								CHANNELS 3 Xrotation Yrotation Zrotation
								End Site
								{
									OFFSET 0.000000 14.885353 0.000000
								}
							}
						}
					}
				}
				JOINT RightShoulder
				{
					OFFSET -6.197800 13.665199 -4.064700
					CHANNELS 3 Xrotation Yrotation Zrotation
					JOINT RightArm
					{
						OFFSET -7.778100 -0.187103 -1.709300
						CHANNELS 3 Xrotation Yrotation Zrotation
						JOINT RightForeArm
						{
							OFFSET -22.049376 0.000000 0.000000
							CHANNELS 3 Xrotation Yrotation Zrotation
							JOINT RightHand
							{
								OFFSET -23.009392 0.000000 0.000000
								CHANNELS 3 Xrotation Yrotation Zrotation
								JOINT RightHandThumb1
								{
									OFFSET -3.507191 -2.063065 3.133727
									CHANNELS 3 Xrotation Yrotation Zrotation
									JOINT RightHandThumb2
									{
										OFFSET -3.101337 -1.790558 1.790558
										CHANNELS 3 Xrotation Yrotation Zrotation
										JOINT RightHandThumb3
										{
											OFFSET -3.058640 -1.765907 1.765906
											CHANNELS 3 Xrotation Yrotation Zrotation
											End Site
											{
												OFFSET 0.415260 3.926476 -0.049563
											}
										}
									}
								}
								JOINT RightHandIndex1
								{
									OFFSET -11.334419 -0.901459 3.706815
									CHANNELS 3 Xrotation Yrotation Zrotation
									JOINT RightHandIndex2
									{
										OFFSET -3.283112 0.000000 0.000000
										CHANNELS 3 Xrotation Yrotation Zrotation
										JOINT RightHandIndex3
										{
											OFFSET -3.323853 0.000000 0.000000
											CHANNELS 3 Xrotation Yrotation Zrotation
											End Site
											{
												OFFSET 1.135597 3.097809 0.402452
											}
										}
									}
								}
								JOINT RightHandMiddle1
								{
									OFFSET -11.335861 0.000000 0.000000
									CHANNELS 3 Xrotation Yrotation Zrotation
									JOINT RightHandMiddle2
									{
										OFFSET -3.410492 0.000000 0.000000
										CHANNELS 3 Xrotation Yrotation Zrotation
										JOINT RightHandMiddle3
										{
											OFFSET -3.312172 0.000000 0.000000
											CHANNELS 3 Xrotation Yrotation Zrotation
											End Site
											{
												OFFSET 1.150200 3.080154 0.400270
											}
										}
									}
								}
								JOINT RightHandRing1
								{
									OFFSET -11.514786 -0.013176 -3.003090
									CHANNELS 3 Xrotation Yrotation Zrotation
									JOINT RightHandRing2
									{
										OFFSET -3.053307 0.000000 0.000000
										CHANNELS 3 Xrotation Yrotation Zrotation
										JOINT RightHandRing3
										{
											OFFSET -3.295807 0.000000 0.000000
											CHANNELS 3 Xrotation Yrotation Zrotation
											End Site
											{
												OFFSET 1.281006 3.013344 0.375733
											}
										}
									}
								}
								JOINT RightHandPinky1
								{
									OFFSET -10.518692 -0.960396 -5.730441
									CHANNELS 3 Xrotation Yrotation Zrotation
									JOINT RightHandPinky2
									{
										OFFSET -2.861649 0.000000 0.000000
										CHANNELS 3 Xrotation Yrotation Zrotation
										JOINT RightHandPinky3
										{
											OFFSET -2.863380 0.000000 0.000000
											CHANNELS 3 Xrotation Yrotation Zrotation
											End Site
											{
												OFFSET 0.843597 2.711159 0.369971
											}
										}
									}
								}
							}
							JOINT RSleeve
							{
								OFFSET -6.676277 -0.344902 -1.011730
								CHANNELS 3 Xrotation Yrotation Zrotation
								End Site
								{
									OFFSET 0.000000 14.885353 0.000000
								}
							}
						}
					}
				}
				JOINT Backpack
				{
					OFFSET 0.000000 -2.471497 36.677502
					CHANNELS 3 Xrotation Yrotation Zrotation
					End Site
					{
						OFFSET 0.000000 20.427315 0.000000
					}
				}
				JOINT Hood
				{
					OFFSET 0.000000 18.754097 -10.431000
					CHANNELS 3 Xrotation Yrotation Zrotation
					JOINT Hood1
					{
						OFFSET 0.000000 -5.011002 -7.685901
						CHANNELS 3 Xrotation Yrotation Zrotation
						End Site
						{
							OFFSET 0.000000 9.175140 0.000000
						}
					}
				}
				JOINT LHoodieString
				{
					OFFSET 5.250500 16.397697 3.089900
					CHANNELS 3 Xrotation Yrotation Zrotation
					JOINT LHoodieString1
					{
						OFFSET 0.257700 -6.364304 3.694600
						CHANNELS 3 Xrotation Yrotation Zrotation
						JOINT LHoodieString2
						{
							OFFSET 0.000000 -9.643799 2.679100
							CHANNELS 3 Xrotation Yrotation Zrotation
							End Site
							{
								OFFSET 0.000000 10.009018 0.000000
							}
						}
					}
				}
				JOINT RHoodieString
				{
					OFFSET -5.250500 16.397697 3.089900
					CHANNELS 3 Xrotation Yrotation Zrotation
					JOINT RHoodieString1
					{
						OFFSET -0.257700 -6.364304 3.694600
						CHANNELS 3 Xrotation Yrotation Zrotation
						JOINT RHoodieString2
						{
							OFFSET 0.000000 -9.643799 2.679100
							CHANNELS 3 Xrotation Yrotation Zrotation
							End Site
							{
								OFFSET 0.000000 10.009018 0.000000
							}
						}
					}
				}
			}
			JOINT LBackpack_Strap
			{
				OFFSET 15.223200 -7.719803 -6.610900
				CHANNELS 3 Xrotation Yrotation Zrotation
				End Site
				{
					OFFSET 0.000000 16.040596 0.000000
				}
			}
			JOINT RBackpack_Strap
			{
				OFFSET -15.223000 -7.719803 -6.610900
				CHANNELS 3 Xrotation Yrotation Zrotation
				End Site
				{
					OFFSET 0.000000 16.040596 0.000000
				}
			}
		}
	}
	JOINT BoyFacialAnim_Joint
	{
		OFFSET 1.000000 -82.208099 -1.550900
		CHANNELS 3 Xrotation Yrotation Zrotation
		End Site
		{
			OFFSET 0.000000 30.012791 0.000000
		}
	}
}
MOTION
Frames: 4
Frame Time: 0.033333
-0.446173 82.467995 0.266841 -2.842875 -2.563543 -2.739715 -0.000000 -0.000000 -0.000000 -12.709893 14.306541 10.124491 12.190847 -0.419922 4.373355 2.522711 0.519063 -7.930990 -0.000000 0.000001 -0.000000 -0.000000 0.000001 -0.000000 0.000000 0.000000 0.000001 0.466813 -10.199964 3.621996 6.334376 -10.078108 -3.993845 -3.505863 -4.286037 3.164731 -0.000000 0.000000 0.000000 -0.000000 0.000000 0.000000 0.000001 -0.000000 -0.000000 3.480974 1.625770 2.598826 1.517818 0.497520 1.814078 1.491461 0.516144 1.821135 6.484775 0.437135 2.732976 -6.085614 3.149137 6.919055 0.000001 0.000000 0.000001 0.000001 0.000000 0.000001 0.000001 0.000000 0.000001 1.087660 -17.423794 -12.061939 3.878647 -19.435489 -69.041219 -0.000005 -1.538682 0.000019 -33.980358 -1.733446 -5.403165 -0.695206 2.054373 4.814962 11.826339 25.354181 17.053019 0.000002 -0.000001 -0.000001 -0.034223 -1.000490 -7.614519 0.268322 1.754334 -17.390439 0.000001 0.000000 -0.000002 -0.082622 2.655849 -15.842661 0.268749 1.755692 -17.404396 -0.000000 0.000000 0.000000 0.120170 3.594289 -21.042840 0.386572 2.094656 -20.910556 -0.000001 0.000001 0.000003 0.970702 5.624733 -27.205410 0.270897 1.762548 -17.474482 0.000000 0.000001 -0.000000 0.000003 -0.000001 -0.000000 1.106959 15.544754 15.216944 12.809227 27.307236 57.779350 0.000007 6.358609 -0.000002 -20.108284 0.250676 6.676486 -1.655336 -0.166020 -4.229128 12.711350 -29.826087 -16.122614 0.000001 0.000001 -0.000002 0.018357 1.317352 6.889266 0.212330 -1.391605 17.349982 -0.000005 0.000001 0.000002 -0.141623 -2.179500 14.940170 0.214805 -1.399464 17.451183 0.000004 0.000001 -0.000002 0.027426 -3.065679 20.416631 0.308700 -1.668948 20.957389 -0.000001 0.000003 0.000004 0.779138 -4.937760 26.316777 0.217730 -1.408747 17.570844 -0.000003 0.000000 0.000000 -0.000000 0.000001 -0.000001 0.000001 0.000000 0.000000 0.000001 0.000000 0.000000 0.000001 0.000000 0.000000 0.000001 0.000000 0.000000 0.000001 0.000000 -0.000000 0.000000 0.000000 -0.000000 0.000001 0.000000 0.000000 0.000001 0.000000 -0.000000 0.000000 0.000000 -0.000000 0.000000 0.000000 -0.000000 0.000000 0.000000 -0.000000 -0.000000 -0.000000 -0.000000 
-0.443360 82.462975 0.276894 -2.963596 -2.650548 -2.722289 0.000000 0.000000 -0.000000 -12.592794 14.329003 10.111667 12.266707 -0.349785 4.372620 2.476361 0.519404 -7.912277 0.000000 -0.000000 0.000000 0.000000 -0.000000 0.000000 -0.000000 0.000000 -0.000000 0.505940 -10.225531 3.552255 6.498472 -10.073377 -3.959181 -3.593823 -4.169994 3.171030 0.000000 -0.000000 -0.000000 0.000000 -0.000000 -0.000000 -0.000000 -0.000000 -0.000000 3.478710 1.624606 2.595689 1.518102 0.497815 1.815574 1.491738 0.515603 1.822489 6.654887 0.411342 2.613534 -5.690062 3.085024 6.529090 0.000000 0.000000 -0.000000 0.000000 0.000000 -0.000000 0.000000 0.000000 -0.000000 1.083241 -17.438100 -12.092864 3.881325 -19.449824 -69.045877 -0.000004 -1.664973 0.000012 -34.188430 -1.773926 -5.454362 -0.693632 2.068389 4.817245 11.827801 25.337003 17.049272 0.000001 -0.000001 -0.000004 -0.036069 -0.994351 -7.639256 0.267814 1.752706 -17.373752 0.000001 0.000000 -0.000000 -0.081905 2.661217 -15.875040 0.268732 1.755637 -17.403838 0.000002 -0.000000 0.000000 0.121665 3.601187 -21.109688 0.387058 2.095935 -20.923911 -0.000001 -0.000001 0.000003 0.972012 5.626208 -27.249438 0.270428 1.761042 -17.459080 -0.000000 0.000000 -0.000000 0.000002 0.000001 0.000001 1.097161 15.482555 15.272066 12.853171 27.302114 57.721717 0.000004 6.431014 0.000007 -20.262781 0.322559 6.635849 -1.653435 -0.167920 -4.226092 12.706244 -29.848135 -16.127490 -0.000000 0.000004 0.000004 0.018193 1.299454 6.920178 0.211928 -1.390312 17.333512 0.000001 0.000001 0.000004 -0.144167 -2.170917 14.951786 0.214838 -1.399582 17.452721 0.000002 -0.000002 -0.000001 0.028352 -3.069937 20.456715 0.309464 -1.670915 20.983251 -0.000000 0.000000 0.000002 0.789072 -4.956380 26.396019 0.216989 -1.406420 17.540744 -0.000003 0.000002 -0.000003 0.000001 -0.000001 0.000000 -0.000000 0.000000 -0.000000 -0.000000 0.000000 -0.000000 -0.000000 0.000000 -0.000000 -0.000000 0.000000 -0.000000 -0.000000 0.000000 -0.000000 -0.000000 -0.000000 0.000000 -0.000000 0.000000 -0.000000 -0.000000 0.000000 -0.000000 -0.000000 -0.000000 0.000000 0.000000 0.000000 0.000000 0.000000 0.000000 0.000000 0.000000 0.000000 -0.000000 
-0.439136 82.458633 0.283594 -3.048790 -2.733905 -2.708447 -0.000000 -0.000000 -0.000000 -12.508575 14.346121 10.104096 12.326640 -0.276656 4.370902 2.435275 0.519501 -7.905931 -0.000000 -0.000000 -0.000000 -0.000000 -0.000000 -0.000000 -0.000000 0.000001 0.000001 0.517903 -10.245782 3.491286 6.638302 -10.069981 -3.927525 -3.665379 -4.061669 3.175625 0.000000 0.000000 0.000000 0.000000 0.000000 0.000000 -0.000000 0.000001 0.000000 3.475453 1.624040 2.593556 1.520635 0.499509 1.816714 1.494294 0.516880 1.823486 6.670412 0.377673 2.491352 -5.916081 2.953183 6.112096 -0.000000 0.000000 0.000001 -0.000000 0.000000 0.000001 -0.000000 0.000000 0.000001 1.075870 -17.433935 -12.133417 3.875783 -19.507848 -69.058561 0.000006 -1.787763 -0.000002 -34.416432 -1.907572 -5.486452 -0.691835 2.091265 4.827946 11.831765 25.365543 17.054603 -0.000001 -0.000000 0.000001 -0.036379 -0.992507 -7.636498 0.267908 1.753011 -17.376935 -0.000000 0.000000 -0.000002 -0.081587 2.662886 -15.881368 0.268681 1.755478 -17.402159 0.000001 -0.000000 -0.000002 0.121219 3.598932 -21.085453 0.387221 2.096368 -20.928388 -0.000000 0.000000 -0.000004 0.969920 5.623000 -27.214634 0.270352 1.760794 -17.456543 0.000000 0.000000 -0.000004 0.000003 0.000000 0.000001 1.090010 15.403646 15.312289 12.887402 27.351043 57.666987 0.000000 6.438829 -0.000020 -20.320655 0.335551 6.650091 -1.651913 -0.171823 -4.224710 12.706515 -29.849812 -16.128023 0.000001 0.000003 0.000001 0.016346 1.304480 6.937641 0.212516 -1.392179 17.357314 0.000003 0.000001 0.000002 -0.141683 -2.183156 14.982749 0.214879 -1.399703 17.454192 0.000003 -0.000001 -0.000000 0.032145 -3.079890 20.450577 0.309510 -1.671053 20.985071 -0.000004 -0.000000 -0.000003 0.786238 -4.951039 26.413214 0.214951 -1.399968 17.457620 -0.000003 0.000003 -0.000001 -0.000000 0.000000 0.000000 -0.000000 -0.000000 -0.000000 -0.000000 -0.000000 -0.000000 -0.000000 -0.000000 -0.000000 -0.000000 -0.000000 -0.000000 -0.000000 -0.000000 -0.000000 -0.000000 -0.000000 -0.000000 -0.000000 -0.000000 -0.000000 -0.000000 -0.000000 -0.000000 -0.000000 -0.000000 -0.000000 0.000000 0.000000 -0.000000 0.000000 0.000000 -0.000000 -0.000000 -0.000000 -0.000000 
-0.434342 82.455612 0.287811 -3.092912 -2.814379 -2.703305 0.000000 0.000000 -0.000000 -12.465314 14.355574 10.106944 12.374806 -0.199689 4.367053 2.396434 0.519409 -7.905283 0.000000 0.000001 -0.000000 0.000000 0.000001 -0.000000 0.000000 0.000001 0.000000 0.509457 -10.257508 3.448429 6.732065 -10.067366 -3.900909 -3.710172 -3.965366 3.177230 0.000000 0.000000 0.000000 0.000000 0.000000 0.000000 0.000000 0.000001 0.000000 3.471248 1.623643 2.592325 1.517992 0.501132 1.817497 1.491734 0.518484 1.824116 6.529450 0.343161 2.379950 -6.610125 2.787201 5.745411 -0.000000 0.000000 0.000002 -0.000000 0.000000 0.000002 -0.000000 0.000000 0.000002 1.073479 -17.410502 -12.149839 3.831566 -19.590946 -69.114548 -0.000007 -1.856697 -0.000006 -34.477972 -2.019083 -5.495754 -0.694397 2.065375 4.854296 11.841137 25.391759 17.060636 0.000001 0.000000 0.000002 -0.035988 -0.987641 -7.630781 0.268310 1.754303 -17.390111 0.000000 0.000001 -0.000005 -0.081808 2.660108 -15.858402 0.268583 1.755161 -17.398949 -0.000000 -0.000000 0.000002 0.120892 3.597132 -21.064585 0.386497 2.094459 -20.908454 -0.000001 0.000001 -0.000002 0.970004 5.623188 -27.213478 0.270448 1.761105 -17.459755 0.000000 0.000001 0.000002 -0.000002 -0.000000 -0.000000 1.090438 15.370519 15.311042 12.905861 27.394041 57.675135 0.000004 6.381725 -0.000005 -20.258358 0.273197 6.717944 -1.651237 -0.181306 -4.225461 12.703226 -29.845744 -16.128322 -0.000002 0.000003 0.000003 0.014800 1.302299 6.962725 0.215030 -1.400191 17.460614 -0.000001 0.000001 0.000005 -0.148980 -2.160581 15.035178 0.214911 -1.399814 17.455751 0.000003 0.000001 0.000002 0.040696 -3.103271 20.460942 0.310189 -1.672807 21.008142 -0.000000 -0.000002 0.000000 0.779907 -4.939397 26.404057 0.217171 -1.406996 17.548158 -0.000001 -0.000000 0.000004 -0.000001 -0.000000 0.000001 -0.000000 0.000000 -0.000000 -0.000000 0.000000 -0.000000 -0.000000 0.000000 -0.000000 -0.000000 0.000000 -0.000000 -0.000000 0.000000 -0.000000 -0.000000 0.000000 -0.000000 -0.000000 0.000000 -0.000000 -0.000000 0.000000 -0.000000 -0.000000 0.000000 -0.000000 0.000000 0.000000 -0.000000 0.000000 0.000000 -0.000000 0.000000 0.000000 -0.000000 
